<svg viewBox="0 0 24 24">
  <path d="M11.9 3.2c-5 0-9.1 4-9.1 8.9 0 5 4 9 9 9.1 4.9 0 9-4 9-8.9 0-5-4-9.1-8.9-9.1zM11.7 20c-4.2 0-7.6-3.4-7.7-7.5-.2-4.6 3.6-8.1 7.8-8.1 4.4 0 7.5 3.5 7.7 7.2.4 4.8-3.5 8.5-7.8 8.4zm1.8-8.9V13c0 .6.3 1 .8 1.2.6.3 1.3.2 1.8-.3.1-.1.2-.2.3-.2.3-.1.5 0 .7.2.1.2.1.5-.1.7-.6.7-1.4.9-2.3.8-1.3-.1-2.3-1.2-2.3-2.5v-2.3c.1-1.5 1.3-2.5 2.9-2.4.7 0 1.3.3 1.7.8.3.3.3.6 0 .9-.2.2-.6.2-.9 0-.5-.5-1.2-.6-1.8-.3-.6.3-.9.8-.8 1.5zm-5.8 0V13c0 .6.3 1 .8 1.2.6.3 1.3.2 1.8-.3.1-.1.2-.2.3-.2.3-.1.5 0 .7.2.1.2.1.5-.1.7-.6.7-1.4.9-2.3.8-1.3-.1-2.3-1.2-2.3-2.5v-2.3c.1-1.5 1.3-2.5 2.9-2.4.7 0 1.3.3 1.7.8.3.3.3.6 0 .9-.2.2-.6.2-.9 0-.5-.4-1.2-.5-1.8-.3-.6.3-.8.8-.8 1.5z"/>
</svg>