<svg viewBox="0 0 24 24">
  <path d="M3 19.1c0 1 .9 1.9 1.9 1.9h14.2c1 0 1.9-.9 1.9-1.9V4.9c0-1-.9-1.9-1.9-1.9H4.9C3.9 3 3 3.9 3 4.9v14.2zm16.1 1H4.9c-.6 0-1-.4-1-1v-2.4l3.4-3.4 2.9 2.9c.2.2.5.2.6 0l5.3-5.3 4 4v4.2c0 .6-.4 1-1 1zM4.9 3.9h14.2c.6 0 1 .4 1 1v8.8L16.5 10c-.2-.2-.5-.2-.6 0l-5.3 5.3-2.9-2.9c-.2-.2-.5-.2-.6 0L4 15.5V4.9c-.1-.6.3-1 .9-1zm3.7 6.4c1.3 0 2.3-1 2.3-2.3 0-1.3-1-2.3-2.3-2.3-1.3 0-2.3 1-2.3 2.3 0 1.3 1 2.3 2.3 2.3zm0-3.7c.8 0 1.4.6 1.4 1.4s-.6 1.4-1.4 1.4c-.8 0-1.4-.6-1.4-1.4 0-.8.6-1.4 1.4-1.4z"/>
</svg>
