<svg viewBox="0 0 24 24">
  <path d="M2.1 16L6 7.3c.3-.6.8-1 1.4-1h.1c.7 0 1.1.4 1.4 1l3.9 8.8c.1.2.1.3.1.5 0 .7-.5 1.2-1.2 1.2-.6 0-1-.3-1.2-.8l-.7-1.7H5l-.8 1.8c-.2.5-.6.8-1.1.8-.6 0-1.1-.5-1.1-1.1-.1-.4 0-.6.1-.8zM9 12.9L7.4 9.3 5.9 13H9zm5.1 2.3c0-1.9 1.4-2.7 3.4-2.7.9 0 1.5.1 2.1.3v-.1c0-1-.6-1.6-1.8-1.6-.7 0-1.2.1-1.7.2-.1 0-.2.1-.3.1-.6 0-1-.4-1-1 0-.4.3-.8.7-.9.7-.4 1.5-.5 2.6-.5 1.3 0 2.3.3 2.9 1 .6.6.9 1.6.9 2.7v3.9c0 .7-.5 1.2-1.2 1.2s-1.2-.5-1.2-1c-.6.7-1.4 1.1-2.6 1.1-1.5-.1-2.8-1.1-2.8-2.7zm5.6-.6v-.4c-.4-.2-1-.3-1.5-.3-1 0-1.7.4-1.7 1.2 0 .7.5 1 1.3 1 1.1 0 1.9-.6 1.9-1.5z"/>
</svg>